<?xml version="1.0" encoding="UTF-8" standalone="no"?>
<svg
   xmlns:dc="http://purl.org/dc/elements/1.1/"
   xmlns:cc="http://creativecommons.org/ns#"
   xmlns:rdf="http://www.w3.org/1999/02/22-rdf-syntax-ns#"
   xmlns:svg="http://www.w3.org/2000/svg"
   xmlns="http://www.w3.org/2000/svg"
   xmlns:sodipodi="http://sodipodi.sourceforge.net/DTD/sodipodi-0.dtd"
   xmlns:inkscape="http://www.inkscape.org/namespaces/inkscape"
   version="1.1"
   id="Layer_1"
   x="0px"
   y="0px"
   viewBox="0 0 512 512"
   style="enable-background:new 0 0 512 512;"
   xml:space="preserve"
   sodipodi:docname="sphere.svg"
   inkscape:version="1.0.2-2 (e86c870879, 2021-01-15)"><metadata
   id="metadata79"><rdf:RDF><cc:Work
       rdf:about=""><dc:format>image/svg+xml</dc:format><dc:type
         rdf:resource="http://purl.org/dc/dcmitype/StillImage" /></cc:Work></rdf:RDF></metadata><defs
   id="defs77" /><sodipodi:namedview
   pagecolor="#ffffff"
   bordercolor="#666666"
   borderopacity="1"
   objecttolerance="10"
   gridtolerance="10"
   guidetolerance="10"
   inkscape:pageopacity="0"
   inkscape:pageshadow="2"
   inkscape:window-width="1920"
   inkscape:window-height="1017"
   id="namedview75"
   showgrid="false"
   inkscape:zoom="1.6601562"
   inkscape:cx="249.37412"
   inkscape:cy="245.76"
   inkscape:window-x="1912"
   inkscape:window-y="-8"
   inkscape:window-maximized="1"
   inkscape:current-layer="Layer_1"
   inkscape:document-rotation="0" />
<g
   id="g6"
   style="fill:#000000;fill-opacity:1">
	<g
   id="g4"
   style="fill:#000000;fill-opacity:1">
		<path
   id="path2"
   style="fill:#000000;fill-opacity:1"
   d="M 256 0 C 187.62 0 123.33347 26.628469 74.980469 74.980469 C 26.628469 123.33347 -9.4739031e-15 187.62 0 256 C 0 324.38 26.628469 388.66653 74.980469 437.01953 C 123.33347 485.37153 187.62 512 256 512 C 324.381 512 388.66753 485.37153 437.01953 437.01953 C 485.37253 388.66653 512 324.38 512 256 C 512 187.62 485.37253 123.33347 437.01953 74.980469 C 388.66753 26.628469 324.381 -9.4739031e-15 256 0 z M 256 20.398438 C 377.116 20.398438 477.16225 112.26561 490.15625 229.97461 C 488.88325 230.41261 487.67619 231.10731 486.61719 232.07031 C 482.45019 235.85931 482.14359 242.31152 485.93359 246.47852 C 489.01759 249.86952 490.58203 253.07205 490.58203 255.99805 C 490.58203 265.27505 473.76881 280.73167 426.38281 293.76367 C 381.00481 306.24267 320.496 313.11523 256 313.11523 C 191.504 313.11523 130.99419 306.24462 85.617188 293.76562 C 38.230187 280.73462 21.417969 265.278 21.417969 256 C 21.417969 253.074 22.982406 249.87052 26.066406 246.47852 C 29.855406 242.31152 29.548859 235.85931 25.380859 232.07031 C 24.321859 231.10731 23.11575 230.41261 21.84375 229.97461 C 34.83775 112.26561 134.884 20.398438 256 20.398438 z M 275.01562 178.68555 C 269.48262 178.68555 264.93927 183.11092 264.82227 188.66992 C 264.70327 194.30192 269.17269 198.96303 274.80469 199.08203 C 287.44269 199.34903 300.06622 199.89227 312.32422 200.69727 C 312.55222 200.71227 312.77695 200.71875 313.00195 200.71875 C 318.32995 200.71875 322.81592 196.5805 323.16992 191.1875 C 323.53692 185.5665 319.28016 180.7118 313.66016 180.3418 C 301.10216 179.5178 288.17237 178.9605 275.23438 178.6875 C 275.16138 178.6855 275.08763 178.68555 275.01562 178.68555 z M 236.79883 178.6875 C 223.85983 178.9605 210.93495 179.51684 198.37695 180.33984 C 192.75595 180.70784 188.49623 185.56259 188.86523 191.18359 C 189.21723 196.57759 193.7022 200.7168 199.0332 200.7168 C 199.2572 200.7168 199.48394 200.70836 199.71094 200.69336 C 211.96894 199.88936 224.59152 199.34708 237.22852 199.08008 C 242.86052 198.96208 247.32894 194.30192 247.21094 188.66992 C 247.09194 183.03692 242.41583 178.5315 236.79883 178.6875 z M 161.05859 183.7207 C 160.71383 183.72587 160.36556 183.74812 160.01562 183.78906 C 146.77263 185.32006 133.91583 187.18403 121.79883 189.33203 C 116.25283 190.31503 112.55216 195.61025 113.53516 201.15625 C 114.41216 206.10225 118.71341 209.57813 123.56641 209.57812 C 124.15741 209.57812 124.75737 209.52692 125.35938 209.41992 C 137.07438 207.34292 149.52333 205.53773 162.36133 204.05273 C 167.95533 203.40573 171.96731 198.34405 171.32031 192.74805 C 170.71375 187.50273 166.23009 183.64314 161.05859 183.7207 z M 350.97461 183.72656 C 345.8069 183.65246 341.32133 187.50859 340.71289 192.75391 C 340.06589 198.34891 344.07783 203.40864 349.67383 204.05664 C 362.50883 205.54164 374.95773 207.34778 386.67773 209.42578 C 387.27973 209.53178 387.87675 209.58398 388.46875 209.58398 C 393.32175 209.58398 397.624 206.10806 398.5 201.16406 C 399.482 195.61706 395.78333 190.32284 390.23633 189.33984 C 378.11533 187.19184 365.25658 185.32692 352.01758 183.79492 C 351.66795 183.7543 351.31912 183.7315 350.97461 183.72656 z M 86.892578 197.25781 C 85.890021 197.21437 84.863297 197.32003 83.841797 197.58984 C 69.729797 201.31784 57.144688 205.51255 46.429688 210.06055 C 41.244687 212.26155 38.824391 218.24859 41.025391 223.43359 C 42.674391 227.31759 46.447969 229.65039 50.417969 229.65039 C 51.746969 229.65039 53.097438 229.38989 54.398438 228.83789 C 64.218437 224.66989 75.879734 220.79055 89.052734 217.31055 C 94.499734 215.87155 97.747594 210.2917 96.308594 204.8457 C 95.139406 200.42164 91.236993 197.44606 86.892578 197.25781 z M 425.15039 197.26758 C 420.80746 197.45486 416.89966 200.42783 415.73047 204.85352 C 414.29147 210.29752 417.54033 215.87936 422.98633 217.31836 C 436.16133 220.80036 447.82067 224.68156 457.63867 228.85156 C 458.93867 229.40456 460.29014 229.66406 461.61914 229.66406 C 465.58914 229.66406 469.36272 227.33417 471.01172 223.45117 C 473.21372 218.26717 470.79533 212.27817 465.61133 210.07617 C 454.89933 205.52617 442.31027 201.32961 428.19727 197.59961 C 427.17689 197.32961 426.15261 197.22436 425.15039 197.26758 z M 22.75 289.21484 C 36.039 298.42684 55.288984 306.58059 80.208984 313.43359 C 127.29798 326.38359 189.72705 333.51367 255.99805 333.51367 C 322.26905 333.51367 384.70106 326.38359 431.78906 313.43359 C 456.70906 306.58059 475.95809 298.42584 489.24609 289.21484 C 473.05709 403.45384 374.638 491.60156 256 491.60156 C 137.362 491.60156 38.942 403.45384 22.75 289.21484 z " />
	</g>
</g>
<g
   id="g12"
   style="fill:#ffffff;fill-opacity:1">
	<g
   id="g10"
   style="fill:#ffffff;fill-opacity:1">
		
	</g>
</g>
<g
   id="g18"
   style="fill:#ffffff;fill-opacity:1">
	<g
   id="g16"
   style="fill:#ffffff;fill-opacity:1">
		
	</g>
</g>
<g
   id="g24"
   style="fill:#ffffff;fill-opacity:1">
	<g
   id="g22"
   style="fill:#ffffff;fill-opacity:1">
		
	</g>
</g>
<g
   id="g30"
   style="fill:#ffffff;fill-opacity:1">
	<g
   id="g28"
   style="fill:#ffffff;fill-opacity:1">
		
	</g>
</g>
<g
   id="g36"
   style="fill:#ffffff;fill-opacity:1">
	<g
   id="g34"
   style="fill:#ffffff;fill-opacity:1">
		
	</g>
</g>
<g
   id="g42"
   style="fill:#ffffff;fill-opacity:1">
	<g
   id="g40"
   style="fill:#ffffff;fill-opacity:1">
		
	</g>
</g>
<g
   id="g44">
</g>
<g
   id="g46">
</g>
<g
   id="g48">
</g>
<g
   id="g50">
</g>
<g
   id="g52">
</g>
<g
   id="g54">
</g>
<g
   id="g56">
</g>
<g
   id="g58">
</g>
<g
   id="g60">
</g>
<g
   id="g62">
</g>
<g
   id="g64">
</g>
<g
   id="g66">
</g>
<g
   id="g68">
</g>
<g
   id="g70">
</g>
<g
   id="g72">
</g>
</svg>
